HIERARCHY
ROOT hip
{
  OFFSET 0.0 0.0 0.0
  CHANNELS 6 Xposition Yposition Zposition Zrotation Yrotation Xrotation
  JOINT abdomen
  {
    OFFSET 0.0 20.6881 -0.73152
    CHANNELS 3 Zrotation Xrotation Yrotation
    JOINT chest
    {
      OFFSET 0.0 11.7043 -0.48768
      CHANNELS 3 Zrotation Xrotation Yrotation
      JOINT neck
      {
        OFFSET 0.0 22.1894 -2.19456
        CHANNELS 3 Zrotation Xrotation Yrotation
        JOINT head
        {
          OFFSET -0.24384 7.07133 1.2192
          CHANNELS 3 Zrotation Xrotation Yrotation
          JOINT leftEye
          {
            OFFSET 4.14528 8.04674 8.04672
            CHANNELS 3 Zrotation Xrotation Yrotation
            End Site
            {
              OFFSET 1.0 0.0 0.0
            }
          }
          JOINT rightEye
          {
            OFFSET -3.6576 8.04674 8.04672
            CHANNELS 3 Zrotation Xrotation Yrotation
            End Site
            {
              OFFSET 1.0 0.0 0.0
            }
          }
        }
      }
      JOINT rCollar
      {
        OFFSET -2.68224 19.2634 -4.8768
        CHANNELS 3 Zrotation Xrotation Yrotation
        JOINT rShldr
        {
          OFFSET -8.77824 -1.95073 1.46304
          CHANNELS 3 Zrotation Xrotation Yrotation
          JOINT rForeArm
          {
            OFFSET -28.1742 -1.7115 0.48768
            CHANNELS 3 Zrotation Xrotation Yrotation
            JOINT rHand
            {
              OFFSET -22.5879 0.773209 7.07136
              CHANNELS 3 Zrotation Xrotation Yrotation
              JOINT rThumb1
              {
                OFFSET -1.2192 -0.487915 3.41376
                CHANNELS 3 Zrotation Xrotation Yrotation
                JOINT rThumb2
                {
                  OFFSET -3.37035 -0.52449 3.41376
                  CHANNELS 3 Zrotation Xrotation Yrotation
                  End Site
                  {
                    OFFSET -1.78271 -1.18214 1.43049
                  }
                }
              }
              JOINT rIndex1
              {
                OFFSET -7.75947 0.938293 5.60832
                CHANNELS 3 Zrotation Xrotation Yrotation
                JOINT rIndex2
                {
                  OFFSET -2.54057 -0.884171 1.56538
                  CHANNELS 3 Zrotation Xrotation Yrotation
                  End Site
                  {
                    OFFSET -1.62519 -0.234802 1.16502
                  }
                }
              }
              JOINT rMid1
              {
                OFFSET -8.24714 1.18213 3.41376
                CHANNELS 3 Zrotation Xrotation Yrotation
                JOINT rMid2
                {
                  OFFSET -3.10165 -0.590103 1.0647
                  CHANNELS 3 Zrotation Xrotation Yrotation
                  End Site
                  {
                    OFFSET -2.48547 -0.328903 0.83742
                  }
                }
              }
              JOINT rRing1
              {
                OFFSET -8.82822 0.546677 1.51678
                CHANNELS 3 Zrotation Xrotation Yrotation
                JOINT rRing2
                {
                  OFFSET -2.60934 -0.819778 -0.0198488
                  CHANNELS 3 Zrotation Xrotation Yrotation
                  End Site
                  {
                    OFFSET -2.33842 -0.294052 0.168128
                  }
                }
              }
              JOINT rPinky1
              {
                OFFSET -8.27202 -0.0477905 -0.4584
                CHANNELS 3 Zrotation Xrotation Yrotation
                JOINT rPinky2
                {
                  OFFSET -1.82734 -0.647385 -0.700984
                  CHANNELS 3 Zrotation Xrotation Yrotation
                  End Site
                  {
                    OFFSET -1.69225 -0.51767 -0.607171
                  }
                }
              }
            }
          }
        }
      }
      JOINT lCollar
      {
        OFFSET 2.68224 19.2634 -4.8768
        CHANNELS 3 Zrotation Xrotation Yrotation
        JOINT lShldr
        {
          OFFSET 8.77824 -1.95073 1.46304
          CHANNELS 3 Zrotation Xrotation Yrotation
          JOINT lForeArm
          {
            OFFSET 28.1742 -1.7115 0.48768
            CHANNELS 3 Zrotation Xrotation Yrotation
            JOINT lHand
            {
              OFFSET 22.5879 0.773209 7.07136
              CHANNELS 3 Zrotation Xrotation Yrotation
              JOINT lThumb1
              {
                OFFSET 1.2192 -0.487915 3.41376
                CHANNELS 3 Zrotation Xrotation Yrotation
                JOINT lThumb2
                {
                  OFFSET 3.37035 -0.52449 3.41376
                  CHANNELS 3 Zrotation Xrotation Yrotation
                  End Site
                  {
                    OFFSET 1.78271 -1.18214 1.43049
                  }
                }
              }
              JOINT lIndex1
              {
                OFFSET 7.75947 0.938293 5.60832
                CHANNELS 3 Zrotation Xrotation Yrotation
                JOINT lIndex2
                {
                  OFFSET 2.54057 -0.884171 1.56538
                  CHANNELS 3 Zrotation Xrotation Yrotation
                  End Site
                  {
                    OFFSET 1.62519 -0.234802 1.16502
                  }
                }
              }
              JOINT lMid1
              {
                OFFSET 8.24714 1.18213 3.41376
                CHANNELS 3 Zrotation Xrotation Yrotation
                JOINT lMid2
                {
                  OFFSET 3.10165 -0.590103 1.0647
                  CHANNELS 3 Zrotation Xrotation Yrotation
                  End Site
                  {
                    OFFSET 2.48547 -0.328903 0.83742
                  }
                }
              }
              JOINT lRing1
              {
                OFFSET 8.82822 0.546677 1.51678
                CHANNELS 3 Zrotation Xrotation Yrotation
                JOINT lRing2
                {
                  OFFSET 2.60934 -0.819778 -0.0198488
                  CHANNELS 3 Zrotation Xrotation Yrotation
                  End Site
                  {
                    OFFSET 2.33842 -0.294052 0.168128
                  }
                }
              }
              JOINT lPinky1
              {
                OFFSET 8.27202 -0.0477905 -0.4584
                CHANNELS 3 Zrotation Xrotation Yrotation
                JOINT lPinky2
                {
                  OFFSET 1.82734 -0.647385 -0.700984
                  CHANNELS 3 Zrotation Xrotation Yrotation
                  End Site
                  {
                    OFFSET 1.69225 -0.51767 -0.607171
                  }
                }
              }
            }
          }
        }
      }
    }
  }
  JOINT rButtock
  {
    OFFSET -8.77824 4.35084 1.2192
    CHANNELS 3 Zrotation Xrotation Yrotation
    JOINT rThigh
    {
      OFFSET 0.0 -1.70687 -2.19456
      CHANNELS 3 Zrotation Xrotation Yrotation
      JOINT rShin
      {
        OFFSET 0.0 -36.8199 0.73152
        CHANNELS 3 Zrotation Xrotation Yrotation
        JOINT rFoot
        {
          OFFSET 0.73152 -45.1104 -5.12064
          CHANNELS 3 Zrotation Xrotation Yrotation
          End Site
          {
            OFFSET -1.1221 -3.69964 12.103
          }
        }
      }
    }
  }
  JOINT lButtock
  {
    OFFSET 8.77824 4.35084 1.2192
    CHANNELS 3 Zrotation Xrotation Yrotation
    JOINT lThigh
    {
      OFFSET 0.0 -1.70687 -2.19456
      CHANNELS 3 Zrotation Xrotation Yrotation
      JOINT lShin
      {
        OFFSET 0.0 -36.8199 0.73152
        CHANNELS 3 Zrotation Xrotation Yrotation
        JOINT lFoot
        {
          OFFSET -0.73152 -45.1104 -5.12064
          CHANNELS 3 Zrotation Xrotation Yrotation
          End Site
          {
            OFFSET 1.1221 -3.69964 12.103
          }
        }
      }
    }
  }
}
MOTION
Frames: 8
Frame Time: 0.00833333
0.0 81.3479 0.0 731.925 76.633 379.316 -5.80241 -2.89197 -5.07783 9.18644 -19.6578 0.281841 8.43363 3.43348 2.36087 -7.06608 12.7089 4.89622 -0.0 0.0 0.0 -0.0 0.0 0.0 5.03703e-14 -6.25366e-13 1.27861e-13 77.6047 34.655 -28.4519 -12.2668 -5.63706 22.1272 -0.223927 -13.37 -1.91414 -1.68301e-09 -1.49504e-09 2.37992e-09 -2.92439e-09 -2.57761e-09 4.1017e-09 -1.683e-09 -1.49505e-09 2.37991e-09 7.73091 5.47488 0.417314 -1.68301e-09 -1.49505e-09 2.37993e-09 2.90554 0.965183 0.102902 -1.683e-09 -1.49505e-09 2.37992e-09 10.2786 0.731801 0.0259123 -1.68302e-09 -1.49504e-09 2.37993e-09 2.22167 -0.733487 -0.20892 5.03377e-14 -6.25375e-13 1.27674e-13 -83.7126 42.7711 7.54652 16.5678 -9.2242 -30.8842 0.0745411 7.7557 -1.0968 5.86361e-10 -1.09329e-09 -8.0915e-10 1.00756e-09 -1.88809e-09 -1.40519e-09 5.86357e-10 -1.09329e-09 -8.09136e-10 -7.73091 5.47488 -0.417314 5.8636e-10 -1.09329e-09 -8.09147e-10 -2.90554 0.965183 -0.102902 5.86349e-10 -1.09329e-09 -8.09143e-10 -10.2786 0.731801 -0.0259123 5.86362e-10 -1.09329e-09 -8.09145e-10 -2.22167 -0.733487 0.20892 -2.03217e-16 0.0 -3.88251e-19 2.57325 -31.8781 11.6166 0.0494295 10.083 0.69139 -6.00348 -12.742 -27.9587 2.03217e-16 0.0 3.88251e-19 -15.9574 10.9211 -31.4784 0.0697274 4.34525 0.618681 11.7106 -29.2425 26.8417
1.7638000000000034 81.2308 1.060299999999998 727.95 76.6087 375.113 -4.73124 -3.05773 -4.78784 8.81861 -19.6526 0.299657 8.14395 3.24194 2.08173 -6.08858 13.3837 4.34749 -0.0 0.0 0.0 -0.0 0.0 0.0 -3.95544e-14 4.06415e-14 -1.18177e-13 77.7124 32.0899 -29.8531 -11.9486 -5.40734 21.5168 -0.250878 -14.12 -2.02599 -1.32726e-09 2.00046e-09 -3.62565e-10 -2.28323e-09 3.47063e-09 -6.3902e-10 -1.32725e-09 2.00045e-09 -3.62578e-10 7.73091 5.47488 0.417314 -1.32726e-09 2.00045e-09 -3.62557e-10 2.90554 0.965183 0.102902 -1.32725e-09 2.00045e-09 -3.62568e-10 10.2786 0.731801 0.0259123 -1.32727e-09 2.00046e-09 -3.62564e-10 2.22167 -0.733487 -0.20892 -3.96203e-14 4.06346e-14 -1.18417e-13 -84.8949 43.2638 8.21477 16.4742 -9.13325 -30.6851 0.0678667 7.40734 -1.04695 1.11589e-09 -1.57848e-10 -1.94746e-10 1.92793e-09 -2.68779e-10 -3.45493e-10 1.11588e-09 -1.57844e-10 -1.94731e-10 -7.73091 5.47488 -0.417314 1.11589e-09 -1.57845e-10 -1.94746e-10 -2.90554 0.965183 -0.102902 1.11588e-09 -1.57845e-10 -1.9474e-10 -10.2786 0.731801 -0.0259123 1.11589e-09 -1.57845e-10 -1.94745e-10 -2.22167 -0.733487 0.20892 -2.03217e-16 0.0 -3.88251e-19 3.82154 -31.9457 9.5427 0.0466166 12.4802 0.716563 -4.69547 -11.6264 -25.627 2.03217e-16 0.0 3.88251e-19 -14.8909 12.4981 -31.5175 0.073672 4.43162 0.629837 12.4042 -29.928 27.3956
3.468700000000002 81.1638 2.215799999999998 723.385 76.3399 370.456 -3.66313 -3.26143 -4.40313 8.42856 -19.6373 0.341401 7.90048 3.01873 1.79413 -5.12709 14.049 3.75879 -0.0 0.0 0.0 -0.0 0.0 0.0 -1.12835e-13 6.38469e-13 -3.36088e-13 77.7462 29.6315 -31.0877 -11.5608 -5.13822 20.7724 -0.275653 -14.7543 -2.12136 -9.09223e-10 5.02023e-09 -2.93249e-09 -1.53635e-09 8.69502e-09 -5.08072e-09 -9.09218e-10 5.02022e-09 -2.9325e-09 7.73091 5.47488 0.417314 -9.09222e-10 5.02022e-09 -2.93248e-09 2.90554 0.965183 0.102902 -9.09214e-10 5.02023e-09 -2.93249e-09 10.2786 0.731801 0.0259123 -9.0923e-10 5.02023e-09 -2.93249e-09 2.22167 -0.733487 -0.20892 -1.12935e-13 6.38464e-13 -3.36371e-13 -86.1679 43.5947 9.00195 16.323 -8.9891 -30.3617 0.0628006 7.13459 -1.00797 1.45013e-09 7.25851e-10 3.73903e-10 2.51038e-09 1.26049e-09 6.36481e-10 1.45013e-09 7.25854e-10 3.73919e-10 -7.73091 5.47488 -0.417314 1.45013e-09 7.25853e-10 3.73901e-10 -2.90554 0.965183 -0.102902 1.45012e-09 7.25854e-10 3.73907e-10 -10.2786 0.731801 -0.0259123 1.45013e-09 7.25855e-10 3.739e-10 -2.22167 -0.733487 0.20892 -2.03217e-16 0.0 -3.88251e-19 5.18843 -31.9242 7.87814 0.0420065 14.8192 0.736657 -3.66861 -10.8517 -23.3199 2.03217e-16 0.0 3.88251e-19 -13.7452 13.9211 -31.353 0.0760062 4.58981 0.632432 12.9873 -30.2225 27.97
5.112000000000002 81.1681 3.304299999999998 720.551 75.8744 367.682 -2.83634 -3.56059 -4.09837 8.14801 -19.5878 0.380844 7.78682 2.77554 1.50887 -4.32084 14.7109 3.15208 -0.0 0.0 0.0 -0.0 0.0 0.0 -1.2227e-13 8.64453e-13 -3.84698e-13 77.6267 27.4372 -32.0017 -11.0867 -4.8284 19.8557 -0.277517 -14.8287 -2.13234 -4.66991e-10 5.72989e-09 -4.06059e-09 -7.61881e-10 9.92047e-09 -7.02827e-09 -4.66986e-10 5.72988e-09 -4.06061e-09 7.73091 5.47488 0.417314 -4.66989e-10 5.72988e-09 -4.06059e-09 2.90554 0.965183 0.102902 -4.66981e-10 5.72988e-09 -4.0606e-09 10.2786 0.731801 0.0259123 -4.66996e-10 5.72989e-09 -4.0606e-09 2.22167 -0.733487 -0.20892 -1.22392e-13 8.64451e-13 -3.84996e-13 -87.5124 43.8191 9.92316 16.1455 -8.82311 -29.9805 0.0599109 6.96738 -0.984106 1.1379e-09 1.17195e-09 6.56746e-10 1.97308e-09 2.03126e-09 1.12851e-09 1.1379e-09 1.17196e-09 6.56762e-10 -7.73091 5.47488 -0.417314 1.1379e-09 1.17196e-09 6.56743e-10 -2.90554 0.965183 -0.102902 1.13789e-09 1.17196e-09 6.56749e-10 -10.2786 0.731801 -0.0259123 1.1379e-09 1.17196e-09 6.5674e-10 -2.22167 -0.733487 0.20892 -2.03217e-16 0.0 -3.88251e-19 6.49765 -31.6149 6.67641 0.0366906 16.6517 0.741981 -3.03633 -10.5628 -21.4105 2.03217e-16 0.0 3.88251e-19 -12.6164 14.9434 -30.7306 0.0735471 4.95321 0.603524 13.0907 -29.6494 28.2557
6.684600000000003 81.2508 4.3481999999999985 718.833 75.3794 366.147 -2.39918 -4.05172 -3.8871 8.0409 -19.4842 0.423427 7.95044 2.42697 1.23311 -3.92844 15.5054 2.53052 -0.0 0.0 0.0 -0.0 0.0 0.0 -2.43805e-14 4.9398e-13 -1.44618e-13 77.2379 25.3402 -32.4493 -10.4221 -4.42063 18.5687 -0.247651 -14.1092 -2.02368 1.08527e-10 2.5022e-09 -2.83779e-09 2.19911e-10 4.32956e-09 -4.90837e-09 1.08532e-10 2.5022e-09 -2.83781e-09 7.73091 5.47488 0.417314 1.08529e-10 2.5022e-09 -2.83779e-09 2.90554 0.965183 0.102902 1.08537e-10 2.5022e-09 -2.8378e-09 10.2786 0.731801 0.0259123 1.08524e-10 2.5022e-09 -2.83779e-09 2.22167 -0.733487 -0.20892 -2.45105e-14 4.9398e-13 -1.44885e-13 -88.9976 43.83 11.0132 15.9173 -8.61388 -29.4908 0.0587873 6.86942 -0.970215 -3.4282e-10 9.29154e-10 4.97248e-10 -5.87552e-10 1.60762e-09 8.6336e-10 -3.42821e-10 9.29157e-10 4.97263e-10 -7.73091 5.47488 -0.417314 -3.4282e-10 9.29156e-10 4.97245e-10 -2.90554 0.965183 -0.102902 -3.42826e-10 9.29158e-10 4.97249e-10 -10.2786 0.731801 -0.0259123 -3.42819e-10 9.29159e-10 4.9724e-10 -2.22167 -0.733487 0.20892 -2.03217e-16 0.0 -3.88251e-19 7.72177 -30.9925 6.14082 0.034369 17.8874 0.737074 -2.85743 -11.0264 -19.9681 2.03217e-16 0.0 3.88251e-19 -11.5833 15.497 -29.5983 0.0656256 5.38539 0.527741 12.7891 -28.0558 28.4759
8.172600000000003 81.3923 5.4548999999999985 717.1 74.9861 364.635 -2.19427 -4.67722 -3.68732 8.02716 -19.3436 0.478924 8.30334 1.99629 0.959745 -3.79624 16.3838 1.88155 -0.0 0.0 0.0 -0.0 0.0 0.0 1.45362e-13 -2.63119e-13 2.81613e-13 76.7296 23.3102 -32.5831 -9.59222 -3.9271 16.9964 -0.203603 -12.871 -1.83923 7.97899e-10 -3.30513e-09 -1.31224e-10 1.38384e-09 -5.7274e-09 -2.21055e-10 7.97904e-10 -3.30513e-09 -1.31236e-10 7.73091 5.47488 0.417314 7.979e-10 -3.30514e-09 -1.31223e-10 2.90554 0.965183 0.102902 7.97907e-10 -3.30513e-09 -1.31228e-10 10.2786 0.731801 0.0259123 7.97896e-10 -3.30513e-09 -1.31225e-10 2.22167 -0.733487 -0.20892 1.45233e-13 -2.63116e-13 2.81408e-13 -90.5891 43.6333 12.2388 15.6285 -8.35157 -28.8809 0.0589893 6.8395 -0.966057 -2.61749e-09 2.52705e-10 5.42746e-11 -4.52285e-09 4.31958e-10 1.13309e-10 -2.6175e-09 2.52709e-10 5.42877e-11 -7.73091 5.47488 -0.417314 -2.61749e-09 2.52706e-10 5.42726e-11 -2.90554 0.965183 -0.102902 -2.6175e-09 2.52709e-10 5.4275e-11 -10.2786 0.731801 -0.0259123 -2.61749e-09 2.52711e-10 5.42656e-11 -2.22167 -0.733487 0.20892 -2.03217e-16 0.0 -3.88251e-19 8.93878 -30.1748 6.17715 0.0347649 18.7555 0.723728 -2.96921 -12.1356 -18.7878 2.03217e-16 0.0 3.88251e-19 -10.575 15.7005 -28.0702 0.0552235 5.87252 0.420294 12.2013 -25.7203 28.7222
9.609000000000002 81.4935 6.707699999999999 714.798 74.563 362.404 -2.00575 -5.2633 -3.53041 8.02268 -19.1985 0.527664 8.57852 1.65825 0.678001 -3.45492 17.0755 1.20563 -0.0 0.0 0.0 -0.0 0.0 0.0 3.15733e-13 -1.05883e-12 7.02272e-13 76.4169 21.7002 -32.6581 -8.79048 -3.45851 15.5227 -0.160936 -11.4339 -1.62824 1.37024e-09 -9.04913e-09 2.66401e-09 2.34439e-09 -1.5674e-08 4.61877e-09 1.37025e-09 -9.04912e-09 2.66401e-09 7.73091 5.47488 0.417314 1.37024e-09 -9.04913e-09 2.66401e-09 2.90554 0.965183 0.102902 1.37025e-09 -9.04913e-09 2.66401e-09 10.2786 0.731801 0.0259123 1.37024e-09 -9.04913e-09 2.66402e-09 2.22167 -0.733487 -0.20892 3.1561e-13 -1.05883e-12 7.02133e-13 -92.1307 43.4528 13.5267 15.3359 -8.08784 -28.275 0.0610781 6.96021 -0.983278 -4.79249e-09 -4.83384e-10 -4.39115e-10 -8.28623e-09 -8.46693e-10 -7.24556e-10 -4.79249e-09 -4.83379e-10 -4.39104e-10 -7.73091 5.47488 -0.417314 -4.79249e-09 -4.83385e-10 -4.39116e-10 -2.90554 0.965183 -0.102902 -4.7925e-09 -4.8338e-10 -4.39115e-10 -10.2786 0.731801 -0.0259123 -4.79249e-09 -4.83379e-10 -4.39125e-10 -2.22167 -0.733487 0.20892 -2.03217e-16 0.0 -3.88251e-19 10.1494 -29.1684 6.40254 0.0345153 19.2874 0.687153 -3.17288 -13.4714 -17.8346 2.03217e-16 0.0 3.88251e-19 -9.45369 15.5775 -26.1396 0.0465889 6.73199 0.304021 11.0902 -22.7985 28.5358
11.220200000000002 81.9938 7.863099999999999 712.485 74.4043 360.034 -1.62087 -5.63604 -3.44759 7.94368 -19.0811 0.550077 8.51226 1.58767 0.376945 -2.44887 17.3093 0.50697 -0.0 0.0 0.0 -0.0 0.0 0.0 4.15506e-13 -1.54516e-12 9.25641e-13 76.5851 20.8699 -32.8938 -8.23413 -3.13532 14.529 -0.127236 -10.1183 -1.43715 1.59468e-09 -1.20868e-08 4.15282e-09 2.71605e-09 -2.09338e-08 7.19621e-09 1.59468e-09 -1.20868e-08 4.15282e-09 7.73091 5.47488 0.417314 1.59468e-09 -1.20868e-08 4.15282e-09 2.90554 0.965183 0.102902 1.59468e-09 -1.20868e-08 4.15283e-09 10.2786 0.731801 0.0259123 1.59467e-09 -1.20868e-08 4.15283e-09 2.22167 -0.733487 -0.20892 4.15391e-13 -1.54515e-12 9.25541e-13 -93.4938 43.513 14.8223 15.1007 -7.87775 -27.796 0.0660643 7.31412 -1.03361 -5.97417e-09 -9.05107e-10 -7.49863e-10 -1.03311e-08 -1.57929e-09 -1.25315e-09 -5.97418e-09 -9.05102e-10 -7.49854e-10 -7.73091 5.47488 -0.417314 -5.97417e-09 -9.05108e-10 -7.49863e-10 -2.90554 0.965183 -0.102902 -5.97418e-09 -9.05103e-10 -7.49864e-10 -10.2786 0.731801 -0.0259123 -5.97417e-09 -9.05102e-10 -7.49873e-10 -2.22167 -0.733487 0.20892 -2.03217e-16 0.0 -3.88251e-19 11.3777 -27.9774 6.44626 0.0302251 19.5145 0.612668 -3.30501 -14.6021 -17.0705 2.03217e-16 0.0 3.88251e-19 -8.07121 15.1469 -23.8053 0.0454804 8.28118 0.201644 9.33668 -19.3905 27.4997
